<svg xmlns="http://www.w3.org/2000/svg" width="191.313" height="191.313" viewBox="0 0 191.313 191.313">
  <path id="Icon_awesome-pinterest" data-name="Icon awesome-pinterest" d="M191.313,96.219A95.668,95.668,0,0,1,67.345,187.594c3.9-6.364,9.72-16.778,11.88-25.071,1.157-4.474,5.94-22.757,5.94-22.757,3.124,5.94,12.227,10.993,21.908,10.993,28.851,0,49.641-26.537,49.641-59.515,0-31.59-25.8-55.234-58.975-55.234-41.271,0-63.218,27.694-63.218,57.9,0,14.04,7.483,31.513,19.4,37.067,1.813.849,2.777.463,3.2-1.273.309-1.311,1.929-7.83,2.661-10.838a2.864,2.864,0,0,0-.656-2.739c-3.9-4.821-7.059-13.616-7.059-21.831,0-21.1,15.968-41.5,43.2-41.5,23.49,0,39.96,16.007,39.96,38.918,0,25.881-13.076,43.817-30.085,43.817-9.373,0-16.431-7.753-14.156-17.28,2.7-11.378,7.907-23.644,7.907-31.86,0-7.328-3.934-13.461-12.111-13.461-9.6,0-17.318,9.913-17.318,23.22a34.467,34.467,0,0,0,2.854,14.194s-9.45,40.037-11.186,47.52c-1.929,8.254-1.157,19.9-.347,27.463a95.666,95.666,0,1,1,130.525-89.1Z" transform="translate(0 -0.563)" fill="#fff"/>
</svg>
