<svg xmlns="http://www.w3.org/2000/svg" width="134.353" height="109.119" viewBox="0 0 134.353 109.119">
  <path id="Icon_awesome-twitter" data-name="Icon awesome-twitter" d="M120.543,30.575c.085,1.193.085,2.387.085,3.581,0,36.4-27.706,78.344-78.344,78.344A77.813,77.813,0,0,1,0,100.139a56.964,56.964,0,0,0,6.649.341A55.146,55.146,0,0,0,40.834,88.716a27.584,27.584,0,0,1-25.745-19.1,34.724,34.724,0,0,0,5.2.426,29.123,29.123,0,0,0,7.246-.938A27.539,27.539,0,0,1,5.456,42.084v-.341a27.731,27.731,0,0,0,12.446,3.5A27.577,27.577,0,0,1,9.377,8.41,78.269,78.269,0,0,0,66.153,37.225a31.084,31.084,0,0,1-.682-6.308,27.562,27.562,0,0,1,47.654-18.84A54.212,54.212,0,0,0,130.6,5.427,27.461,27.461,0,0,1,118.5,20.6a55.2,55.2,0,0,0,15.856-4.262,59.191,59.191,0,0,1-13.81,14.236Z" transform="translate(0 -3.381)" fill="#fff"/>
</svg>
