<svg xmlns="http://www.w3.org/2000/svg" width="91.555" height="91.555" viewBox="0 0 91.555 91.555">
  <path id="Icon_awesome-facebook-square" data-name="Icon awesome-facebook-square" d="M81.745,2.25H9.809A9.809,9.809,0,0,0,0,12.059V84A9.809,9.809,0,0,0,9.809,93.8H37.858V62.678H24.983V48.027H37.858V36.861c0-12.7,7.561-19.717,19.143-19.717a78,78,0,0,1,11.346.989V30.6h-6.39c-6.3,0-8.26,3.907-8.26,7.915v9.513H67.753L65.5,62.678H53.7V93.8H81.745A9.809,9.809,0,0,0,91.555,84V12.059A9.809,9.809,0,0,0,81.745,2.25Z" transform="translate(0 -2.25)" fill="#fff"/>
</svg>
