<svg xmlns="http://www.w3.org/2000/svg" width="185.314" height="154.39" viewBox="0 0 185.314 154.39">
  <path id="Icon_ionic-ios-share-alt" data-name="Icon ionic-ios-share-alt" d="M188.175,71.6,120.1,7.911a3.481,3.481,0,0,0-2.7-1.158c-2.123.1-4.825,1.592-4.825,3.86V42.554a2.062,2.062,0,0,1-1.737,1.978C43.137,54.906,14.622,105.568,4.538,158.16c-.386,2.075,2.412,4,3.715,2.364,24.7-31.121,54.763-51.434,102.289-51.82a2.387,2.387,0,0,1,2.026,2.316v31.362c0,3.377,4.487,4.873,7,2.557l68.562-64.8a5.327,5.327,0,0,0,1.689-4.053A6.465,6.465,0,0,0,188.175,71.6Z" transform="translate(-4.502 -6.75)" fill="#fff"/>
</svg>
